<mxfile host="Electron" agent="Mozilla/5.0 (Macintosh; Intel Mac OS X 10_15_7) AppleWebKit/537.36 (KHTML, like Gecko) draw.io/24.7.8 Chrome/128.0.6613.36 Electron/32.0.1 Safari/537.36" version="24.7.8">
  <diagram id="C5RBs43oDa-KdzZeNtuy" name="Page-1">
    <mxGraphModel dx="2954" dy="1128" grid="1" gridSize="10" guides="1" tooltips="1" connect="1" arrows="1" fold="1" page="1" pageScale="1" pageWidth="827" pageHeight="1169" math="0" shadow="0">
      <root>
        <mxCell id="WIyWlLk6GJQsqaUBKTNV-0" />
        <mxCell id="WIyWlLk6GJQsqaUBKTNV-1" parent="WIyWlLk6GJQsqaUBKTNV-0" />
        <mxCell id="7hQ1g17ibqwbkuFUJ5Pc-2" style="edgeStyle=orthogonalEdgeStyle;rounded=0;orthogonalLoop=1;jettySize=auto;html=1;exitX=0.5;exitY=1;exitDx=0;exitDy=0;entryX=0.5;entryY=0;entryDx=0;entryDy=0;" edge="1" parent="WIyWlLk6GJQsqaUBKTNV-1">
          <mxGeometry relative="1" as="geometry">
            <mxPoint x="340" y="380" as="sourcePoint" />
            <mxPoint x="340" y="430" as="targetPoint" />
          </mxGeometry>
        </mxCell>
        <mxCell id="7hQ1g17ibqwbkuFUJ5Pc-4" style="edgeStyle=orthogonalEdgeStyle;rounded=0;orthogonalLoop=1;jettySize=auto;html=1;exitX=0.5;exitY=1;exitDx=0;exitDy=0;entryX=0.5;entryY=0;entryDx=0;entryDy=0;" edge="1" parent="WIyWlLk6GJQsqaUBKTNV-1" source="7hQ1g17ibqwbkuFUJ5Pc-0" target="7hQ1g17ibqwbkuFUJ5Pc-3">
          <mxGeometry relative="1" as="geometry" />
        </mxCell>
        <mxCell id="7hQ1g17ibqwbkuFUJ5Pc-0" value="Start" style="ellipse;whiteSpace=wrap;html=1;aspect=fixed;" vertex="1" parent="WIyWlLk6GJQsqaUBKTNV-1">
          <mxGeometry x="300" y="130" width="80" height="80" as="geometry" />
        </mxCell>
        <mxCell id="7hQ1g17ibqwbkuFUJ5Pc-6" style="edgeStyle=orthogonalEdgeStyle;rounded=0;orthogonalLoop=1;jettySize=auto;html=1;exitX=0.5;exitY=1;exitDx=0;exitDy=0;entryX=0.5;entryY=0;entryDx=0;entryDy=0;" edge="1" parent="WIyWlLk6GJQsqaUBKTNV-1" source="7hQ1g17ibqwbkuFUJ5Pc-3" target="7hQ1g17ibqwbkuFUJ5Pc-5">
          <mxGeometry relative="1" as="geometry" />
        </mxCell>
        <mxCell id="7hQ1g17ibqwbkuFUJ5Pc-7" value="Yes" style="edgeLabel;html=1;align=center;verticalAlign=middle;resizable=0;points=[];" vertex="1" connectable="0" parent="7hQ1g17ibqwbkuFUJ5Pc-6">
          <mxGeometry x="-0.2" y="1" relative="1" as="geometry">
            <mxPoint as="offset" />
          </mxGeometry>
        </mxCell>
        <mxCell id="7hQ1g17ibqwbkuFUJ5Pc-9" style="edgeStyle=orthogonalEdgeStyle;rounded=0;orthogonalLoop=1;jettySize=auto;html=1;exitX=1;exitY=0.5;exitDx=0;exitDy=0;entryX=0;entryY=0.5;entryDx=0;entryDy=0;" edge="1" parent="WIyWlLk6GJQsqaUBKTNV-1" source="7hQ1g17ibqwbkuFUJ5Pc-3" target="7hQ1g17ibqwbkuFUJ5Pc-8">
          <mxGeometry relative="1" as="geometry" />
        </mxCell>
        <mxCell id="7hQ1g17ibqwbkuFUJ5Pc-10" value="No" style="edgeLabel;html=1;align=center;verticalAlign=middle;resizable=0;points=[];" vertex="1" connectable="0" parent="7hQ1g17ibqwbkuFUJ5Pc-9">
          <mxGeometry x="-0.2667" y="-1" relative="1" as="geometry">
            <mxPoint as="offset" />
          </mxGeometry>
        </mxCell>
        <mxCell id="7hQ1g17ibqwbkuFUJ5Pc-3" value="Check if the following&amp;nbsp;&lt;div&gt;path has been created:&lt;br&gt;&quot;C:\Temp\GoToOpener&quot;&lt;/div&gt;" style="rhombus;whiteSpace=wrap;html=1;" vertex="1" parent="WIyWlLk6GJQsqaUBKTNV-1">
          <mxGeometry x="250" y="260" width="180" height="180" as="geometry" />
        </mxCell>
        <mxCell id="7hQ1g17ibqwbkuFUJ5Pc-13" style="edgeStyle=orthogonalEdgeStyle;rounded=0;orthogonalLoop=1;jettySize=auto;html=1;exitX=0.5;exitY=1;exitDx=0;exitDy=0;entryX=0.5;entryY=0;entryDx=0;entryDy=0;" edge="1" parent="WIyWlLk6GJQsqaUBKTNV-1" source="7hQ1g17ibqwbkuFUJ5Pc-5" target="7hQ1g17ibqwbkuFUJ5Pc-12">
          <mxGeometry relative="1" as="geometry" />
        </mxCell>
        <mxCell id="7hQ1g17ibqwbkuFUJ5Pc-5" value="Download installer from GoTo -website to &quot;C:\Temp\GoToOpener&quot;." style="rounded=0;whiteSpace=wrap;html=1;" vertex="1" parent="WIyWlLk6GJQsqaUBKTNV-1">
          <mxGeometry x="245" y="500" width="190" height="60" as="geometry" />
        </mxCell>
        <mxCell id="7hQ1g17ibqwbkuFUJ5Pc-11" style="edgeStyle=orthogonalEdgeStyle;rounded=0;orthogonalLoop=1;jettySize=auto;html=1;exitX=0.5;exitY=1;exitDx=0;exitDy=0;entryX=1;entryY=0.5;entryDx=0;entryDy=0;" edge="1" parent="WIyWlLk6GJQsqaUBKTNV-1" source="7hQ1g17ibqwbkuFUJ5Pc-8" target="7hQ1g17ibqwbkuFUJ5Pc-5">
          <mxGeometry relative="1" as="geometry" />
        </mxCell>
        <mxCell id="7hQ1g17ibqwbkuFUJ5Pc-8" value="Create folder." style="rounded=0;whiteSpace=wrap;html=1;" vertex="1" parent="WIyWlLk6GJQsqaUBKTNV-1">
          <mxGeometry x="520" y="320" width="190" height="60" as="geometry" />
        </mxCell>
        <mxCell id="7hQ1g17ibqwbkuFUJ5Pc-15" style="edgeStyle=orthogonalEdgeStyle;rounded=0;orthogonalLoop=1;jettySize=auto;html=1;exitX=0.5;exitY=1;exitDx=0;exitDy=0;entryX=0.5;entryY=0;entryDx=0;entryDy=0;" edge="1" parent="WIyWlLk6GJQsqaUBKTNV-1" source="7hQ1g17ibqwbkuFUJ5Pc-12" target="7hQ1g17ibqwbkuFUJ5Pc-14">
          <mxGeometry relative="1" as="geometry" />
        </mxCell>
        <mxCell id="7hQ1g17ibqwbkuFUJ5Pc-12" value="Install installer silently." style="rounded=0;whiteSpace=wrap;html=1;" vertex="1" parent="WIyWlLk6GJQsqaUBKTNV-1">
          <mxGeometry x="245" y="620" width="190" height="60" as="geometry" />
        </mxCell>
        <mxCell id="7hQ1g17ibqwbkuFUJ5Pc-14" value="&lt;font color=&quot;#ffffff&quot;&gt;End&lt;/font&gt;" style="ellipse;html=1;shape=endState;fillColor=#000000;strokeColor=#ff0000;" vertex="1" parent="WIyWlLk6GJQsqaUBKTNV-1">
          <mxGeometry x="295" y="750" width="90" height="90" as="geometry" />
        </mxCell>
      </root>
    </mxGraphModel>
  </diagram>
</mxfile>
